HIERARCHY
ROOT Root
{
  OFFSET 0.0 0.0 0.0
  CHANNELS 6 Xposition Yposition Zposition Zrotation Yrotation Xrotation
  JOINT Hips
  {
    OFFSET 0.0 100.0 0.0
    CHANNELS 6 Xposition Yposition Zposition Zrotation Yrotation Xrotation
    JOINT Spine1
    {
      OFFSET 5.003913 -0.037094 -0.013727
      CHANNELS 3 Zrotation Yrotation Xrotation
      JOINT Spine2
      {
        OFFSET 7.125363 -1e-06 0.0
        CHANNELS 3 Zrotation Yrotation Xrotation
        JOINT Chest
        {
          OFFSET 7.594027 1e-06 0.0
          CHANNELS 3 Zrotation Yrotation Xrotation
          JOINT Neck1
          {
            OFFSET 26.313086 -0.460272 -0.181672
            CHANNELS 3 Zrotation Yrotation Xrotation
            JOINT Neck2
            {
              OFFSET 8.045911 0.0 0.0
              CHANNELS 3 Zrotation Yrotation Xrotation
              JOINT Head
              {
                OFFSET 6.432774 0.0 0.0
                CHANNELS 3 Zrotation Yrotation Xrotation
                JOINT HeadEnd
                {
                  OFFSET 16.169773 0.06451 0.00362
                  CHANNELS 3 Zrotation Yrotation Xrotation
                }
                JOINT Jaw
                {
                  OFFSET 0.108741 3.12938 0.002639
                  CHANNELS 3 Zrotation Yrotation Xrotation
                }
                JOINT LeftEye
                {
                  OFFSET 4.45173 8.166359 3.206392
                  CHANNELS 3 Zrotation Yrotation Xrotation
                }
                JOINT RightEye
                {
                  OFFSET 4.436895 8.135758 -3.222429
                  CHANNELS 3 Zrotation Yrotation Xrotation
                }
              }
            }
          }
          JOINT LeftShoulder
          {
            OFFSET 23.218927 5.195579 1.621656
            CHANNELS 3 Zrotation Yrotation Xrotation
            JOINT LeftArm
            {
              OFFSET 15.902118 2e-06 -2e-06
              CHANNELS 3 Zrotation Yrotation Xrotation
              JOINT LeftForeArm
              {
                OFFSET 28.739307 0.0 -1e-06
                CHANNELS 3 Zrotation Yrotation Xrotation
                JOINT LeftHand
                {
                  OFFSET 27.093981 -4e-06 0.0
                  CHANNELS 3 Zrotation Yrotation Xrotation
                  JOINT LeftHandThumb1
                  {
                    OFFSET 2.276781 3.380274 0.83384
                    CHANNELS 3 Zrotation Yrotation Xrotation
                    JOINT LeftHandThumb2
                    {
                      OFFSET 4.705309 -1e-06 -1e-06
                      CHANNELS 3 Zrotation Yrotation Xrotation
                      JOINT LeftHandThumb3
                      {
                        OFFSET 2.798515 0.0 3e-06
                        CHANNELS 3 Zrotation Yrotation Xrotation
                        JOINT LeftHandThumbEnd
                        {
                          OFFSET 3.180793 4e-06 -4e-06
                          CHANNELS 3 Zrotation Yrotation Xrotation
                        }
                      }
                    }
                  }
                  JOINT LeftHandIndex1
                  {
                    OFFSET 3.247786 2.352677 0.137192
                    CHANNELS 3 Zrotation Yrotation Xrotation
                    JOINT LeftHandIndex2
                    {
                      OFFSET 6.367095 1e-06 0.0
                      CHANNELS 3 Zrotation Yrotation Xrotation
                      JOINT LeftHandIndex3
                      {
                        OFFSET 3.662364 0.0 0.0
                        CHANNELS 3 Zrotation Yrotation Xrotation
                        JOINT LeftHandIndex4
                        {
                          OFFSET 2.329242 4e-06 -4e-06
                          CHANNELS 3 Zrotation Yrotation Xrotation
                          JOINT LeftHandIndexEnd
                          {
                            OFFSET 2.767823 1e-06 0.0
                            CHANNELS 3 Zrotation Yrotation Xrotation
                          }
                        }
                      }
                    }
                  }
                  JOINT LeftHandMiddle1
                  {
                    OFFSET 3.163612 0.945023 -0.406112
                    CHANNELS 3 Zrotation Yrotation Xrotation
                    JOINT LeftHandMiddle2
                    {
                      OFFSET 6.276789 3e-06 0.0
                      CHANNELS 3 Zrotation Yrotation Xrotation
                      JOINT LeftHandMiddle3
                      {
                        OFFSET 4.35652 -1e-06 4e-06
                        CHANNELS 3 Zrotation Yrotation Xrotation
                        JOINT LeftHandMiddle4
                        {
                          OFFSET 2.996877 0.0 8e-06
                          CHANNELS 3 Zrotation Yrotation Xrotation
                          JOINT LeftHandMiddleEnd
                          {
                            OFFSET 2.323256 3e-06 -4e-06
                            CHANNELS 3 Zrotation Yrotation Xrotation
                          }
                        }
                      }
                    }
                  }
                  JOINT LeftHandRing1
                  {
                    OFFSET 2.882606 -0.309162 0.107445
                    CHANNELS 3 Zrotation Yrotation Xrotation
                    JOINT LeftHandRing2
                    {
                      OFFSET 6.033198 0.0 4e-06
                      CHANNELS 3 Zrotation Yrotation Xrotation
                      JOINT LeftHandRing3
                      {
                        OFFSET 4.350578 3e-06 0.0
                        CHANNELS 3 Zrotation Yrotation Xrotation
                        JOINT LeftHandRing4
                        {
                          OFFSET 2.651321 2e-06 -7e-06
                          CHANNELS 3 Zrotation Yrotation Xrotation
                          JOINT LeftHandRingEnd
                          {
                            OFFSET 1.937663 1e-06 -4e-06
                            CHANNELS 3 Zrotation Yrotation Xrotation
                          }
                        }
                      }
                    }
                  }
                  JOINT LeftHandPinky1
                  {
                    OFFSET 2.865315 -1.525436 0.575687
                    CHANNELS 3 Zrotation Yrotation Xrotation
                    JOINT LeftHandPinky2
                    {
                      OFFSET 5.54936 1e-06 -8e-06
                      CHANNELS 3 Zrotation Yrotation Xrotation
                      JOINT LeftHandPinky3
                      {
                        OFFSET 3.070974 0.0 -4e-06
                        CHANNELS 3 Zrotation Yrotation Xrotation
                        JOINT LeftHandPinky4
                        {
                          OFFSET 1.549672 1e-06 0.0
                          CHANNELS 3 Zrotation Yrotation Xrotation
                          JOINT LeftHandPinkyEnd
                          {
                            OFFSET 1.952123 0.0 0.0
                            CHANNELS 3 Zrotation Yrotation Xrotation
                          }
                        }
                      }
                    }
                  }
                }
              }
            }
          }
          JOINT RightShoulder
          {
            OFFSET 23.161716 5.296122 -1.380114
            CHANNELS 3 Zrotation Yrotation Xrotation
            JOINT RightArm
            {
              OFFSET -16.027195 -2e-06 1.1e-05
              CHANNELS 3 Zrotation Yrotation Xrotation
              JOINT RightForeArm
              {
                OFFSET -28.736639 4e-06 2e-06
                CHANNELS 3 Zrotation Yrotation Xrotation
                JOINT RightHand
                {
                  OFFSET -27.133619 6e-06 0.0
                  CHANNELS 3 Zrotation Yrotation Xrotation
                  JOINT RightHandThumb1
                  {
                    OFFSET -2.274328 -3.351035 -0.83067
                    CHANNELS 3 Zrotation Yrotation Xrotation
                    JOINT RightHandThumb2
                    {
                      OFFSET -4.703594 -3e-06 2e-06
                      CHANNELS 3 Zrotation Yrotation Xrotation
                      JOINT RightHandThumb3
                      {
                        OFFSET -2.794935 -4e-06 -3e-06
                        CHANNELS 3 Zrotation Yrotation Xrotation
                        JOINT RightHandThumbEnd
                        {
                          OFFSET -3.183852 4e-06 1e-06
                          CHANNELS 3 Zrotation Yrotation Xrotation
                        }
                      }
                    }
                  }
                  JOINT RightHandIndex1
                  {
                    OFFSET -3.253496 -2.33755 -0.127667
                    CHANNELS 3 Zrotation Yrotation Xrotation
                    JOINT RightHandIndex2
                    {
                      OFFSET -6.344434 0.0 0.0
                      CHANNELS 3 Zrotation Yrotation Xrotation
                      JOINT RightHandIndex3
                      {
                        OFFSET -3.654871 0.0 -8e-06
                        CHANNELS 3 Zrotation Yrotation Xrotation
                        JOINT RightHandIndex4
                        {
                          OFFSET -2.327586 -1e-06 0.0
                          CHANNELS 3 Zrotation Yrotation Xrotation
                          JOINT RightHandIndexEnd
                          {
                            OFFSET -2.770001 3e-06 8e-06
                            CHANNELS 3 Zrotation Yrotation Xrotation
                          }
                        }
                      }
                    }
                  }
                  JOINT RightHandMiddle1
                  {
                    OFFSET -3.168223 -0.944764 0.411762
                    CHANNELS 3 Zrotation Yrotation Xrotation
                    JOINT RightHandMiddle2
                    {
                      OFFSET -6.266691 -1e-06 -4e-06
                      CHANNELS 3 Zrotation Yrotation Xrotation
                      JOINT RightHandMiddle3
                      {
                        OFFSET -4.348901 0.0 0.0
                        CHANNELS 3 Zrotation Yrotation Xrotation
                        JOINT RightHandMiddle4
                        {
                          OFFSET -3.00024 2e-06 -4e-06
                          CHANNELS 3 Zrotation Yrotation Xrotation
                          JOINT RightHandMiddleEnd
                          {
                            OFFSET -2.321477 -4e-06 -4e-06
                            CHANNELS 3 Zrotation Yrotation Xrotation
                          }
                        }
                      }
                    }
                  }
                  JOINT RightHandRing1
                  {
                    OFFSET -2.885654 0.293261 -0.119232
                    CHANNELS 3 Zrotation Yrotation Xrotation
                    JOINT RightHandRing2
                    {
                      OFFSET -6.032835 -1e-06 -4e-06
                      CHANNELS 3 Zrotation Yrotation Xrotation
                      JOINT RightHandRing3
                      {
                        OFFSET -4.33881 0.0 -4e-06
                        CHANNELS 3 Zrotation Yrotation Xrotation
                        JOINT RightHandRing4
                        {
                          OFFSET -2.654903 -4e-06 -4e-06
                          CHANNELS 3 Zrotation Yrotation Xrotation
                          JOINT RightHandRingEnd
                          {
                            OFFSET -1.935122 0.0 4e-06
                            CHANNELS 3 Zrotation Yrotation Xrotation
                          }
                        }
                      }
                    }
                  }
                  JOINT RightHandPinky1
                  {
                    OFFSET -2.866241 1.503904 -0.60527
                    CHANNELS 3 Zrotation Yrotation Xrotation
                    JOINT RightHandPinky2
                    {
                      OFFSET -5.553177 -2e-06 0.0
                      CHANNELS 3 Zrotation Yrotation Xrotation
                      JOINT RightHandPinky3
                      {
                        OFFSET -3.062664 -1e-06 -4e-06
                        CHANNELS 3 Zrotation Yrotation Xrotation
                        JOINT RightHandPinky4
                        {
                          OFFSET -1.546529 2e-06 4e-06
                          CHANNELS 3 Zrotation Yrotation Xrotation
                          JOINT RightHandPinkyEnd
                          {
                            OFFSET -1.952341 0.0 -4e-06
                            CHANNELS 3 Zrotation Yrotation Xrotation
                          }
                        }
                      }
                    }
                  }
                }
              }
            }
          }
        }
      }
    }
    JOINT LeftLeg
    {
      OFFSET -8.443107 2.567604 10.043214
      CHANNELS 3 Zrotation Yrotation Xrotation
      JOINT LeftShin
      {
        OFFSET 43.229198 1e-06 -1e-06
        CHANNELS 3 Zrotation Yrotation Xrotation
        JOINT LeftFoot
        {
          OFFSET 42.298611 1e-06 1e-06
          CHANNELS 3 Zrotation Yrotation Xrotation
          JOINT LeftToeBase
          {
            OFFSET 14.165858 1e-06 0.0
            CHANNELS 3 Zrotation Yrotation Xrotation
            JOINT LeftToeEnd
            {
              OFFSET 6.7141 -0.234461 0.0
              CHANNELS 3 Zrotation Yrotation Xrotation
            }
          }
        }
      }
    }
    JOINT RightLeg
    {
      OFFSET -8.303923 2.592729 -10.047278
      CHANNELS 3 Zrotation Yrotation Xrotation
      JOINT RightShin
      {
        OFFSET -43.369682 0.0 1e-06
        CHANNELS 3 Zrotation Yrotation Xrotation
        JOINT RightFoot
        {
          OFFSET -42.260784 4e-06 2e-06
          CHANNELS 3 Zrotation Yrotation Xrotation
          JOINT RightToeBase
          {
            OFFSET -14.222245 -2e-06 -1e-06
            CHANNELS 3 Zrotation Yrotation Xrotation
            JOINT RightToeEnd
            {
              OFFSET -6.660062 0.232574 -2e-06
              CHANNELS 3 Zrotation Yrotation Xrotation
            }
          }
        }
      }
    }
  }
}
MOTION
Frames: 4
Frame Time: 0.03333333333333333
0.0 0.0 0.0 0.0 -0.0 0.0 -7.077257 28.228886 -55.042606 109.669838 -44.156048 72.186653 22.809683 0.323947 3.283188 3.279325 -1.14842 0.708965 44.055542 -2.089783 -4.404139 17.052212 3.413913 4.350418 -2.765584 0.878786 -3.156156 -28.081144 -3.541253 -4.043555 7e-06 0.0 0.0 -0.209189 0.008104 0.001948 -0.35449 -0.120844 0.058399 -0.245441 0.097014 -0.052335 -17.67218 -57.522427 8.213338 15.576672 27.636938 -97.194626 37.462467 2.287328 2.108809 -6.004988 12.98948 9.60465 17.636629 -26.322731 52.411182 -19.466658 -14.395597 29.410381 -1e-06 -8.774821 -2e-06 17.602917 -18.029375 5.638395 -0.609776 -1.795654 -3.889328 -4.807089 -11.046811 -2.93785 4e-06 -20.976015 0.0 -5.019971 -25.033552 -4.031881 6e-06 -0.0 -1e-06 -10.634533 -5.68697 -3.565587 10.573272 -17.922951 -3.113899 2e-06 -13.821208 1e-06 -0.501779 -31.181505 -4.027014 -10.98148 -59.492924 7.14008 -13.982712 -7.150198 -2.875041 13.77273 -8.40149 -3.218241 0.347732 -34.211555 0.771656 -0.963029 -17.73337 2.62102 -0.0 -1e-06 -0.0 -17.346418 -20.095221 -4.20178 21.757557 -1.638375 3.866428 1e-06 -6.338823 1e-06 -1.69759 -22.591738 -6.194005 -0.0 -4e-06 -2e-06 175.51889 -53.004276 -3.689847 -9.24791 27.87289 -100.486954 21.211403 -2.190484 1.022797 -10.309073 10.628538 -0.975878 22.182114 -20.375906 49.933323 -16.701811 -16.743528 28.47653 -4e-06 -12.690602 -1e-06 16.072145 -18.451757 2.714994 -0.105919 -1.513856 -4.275881 -5.039041 -5.612873 -2.953556 3e-06 -11.020525 1e-06 -6.111301 -15.895334 -3.840467 0.0 1e-06 1e-06 -10.283369 -5.680288 -4.34184 11.028294 -11.302407 -2.372633 -1.384269 -14.238581 -6.32012 -0.625442 -26.924194 -3.827601 -5.206844 -49.718346 -2.961275 -13.708523 -7.363477 -3.720941 18.141148 -14.052741 -3.242671 4e-06 -18.787271 0.0 -0.42971 -8.456045 2.555506 -0.0 0.0 2e-06 -15.923534 -20.094484 -5.473585 30.419214 -7.190826 1.735927 2e-06 -8.16293 -1e-06 -1.861904 -22.861475 -6.167941 2e-06 -2e-06 -2e-06 90.576393 -20.372509 28.650202 153.043655 -1.486516 -0.358996 -52.256088 45.604748 24.291508 -27.720428 1.960305 1.872849 -1.0 -0.0 0.0 -88.293015 -22.451096 35.585403 157.785233 -1.280505 0.273454 -56.400536 49.753029 46.739544 -39.592743 1.000595 0.73222 -1.000001 -1e-06 -1e-06 
0.0 0.0 0.0 0.0 -0.0 0.0 -7.147214 28.233009 -55.102337 109.639809 -44.077026 72.211456 22.766867 0.312098 3.263182 3.258949 -1.142386 0.680023 44.167591 -2.083124 -4.406855 17.477758 3.465118 4.357386 -2.752277 0.902619 -3.164264 -27.859739 -3.416058 -3.943351 6e-06 1e-06 0.0 -0.213229 -0.002364 -0.001126 -0.360157 -0.145602 0.064723 -0.243359 0.100973 -0.064941 -17.689754 -57.489906 8.334249 15.465039 27.590853 -97.239304 37.540066 2.123747 2.053647 -6.132268 13.148544 9.768618 17.636625 -26.322739 52.411209 -19.46666 -14.3956 29.410395 -1e-06 -8.774822 -2e-06 17.539164 -17.977295 5.662967 -0.609776 -1.795654 -3.889329 -4.807089 -11.046813 -2.93785 4e-06 -20.976021 0.0 -5.019972 -25.033566 -4.031879 6e-06 0.0 0.0 -10.634535 -5.686972 -3.565588 10.573276 -17.922953 -3.113901 3e-06 -13.821211 1e-06 -0.501778 -31.181511 -4.027016 -10.971629 -59.482616 7.137789 -13.982716 -7.150199 -2.875042 13.772733 -8.401493 -3.218242 0.347733 -34.211559 0.771656 -0.96303 -17.733372 2.621021 0.0 -1e-06 0.0 -17.346418 -20.095221 -4.201782 21.757561 -1.638375 3.866427 2e-06 -6.338824 1e-06 -1.697589 -22.591751 -6.194006 0.0 -4e-06 -2e-06 175.601944 -53.051472 -3.688973 -9.257243 27.959299 -100.352585 21.266159 -2.188805 1.040049 -10.531992 10.603674 -1.004381 22.182114 -20.375896 49.933319 -16.701811 -16.74353 28.47653 -3e-06 -12.690601 -1e-06 16.101494 -18.463169 2.693896 -0.105919 -1.513855 -4.275881 -5.039041 -5.612871 -2.953555 4e-06 -11.020523 -1e-06 -6.111299 -15.895332 -3.840469 -0.0 -1e-06 1e-06 -10.283371 -5.680288 -4.341838 11.028294 -11.302406 -2.372632 -1.384268 -14.238578 -6.32012 -0.625441 -26.924189 -3.827598 -5.224508 -49.749111 -2.970417 -13.708527 -7.363475 -3.720938 18.141153 -14.052739 -3.242675 6e-06 -18.78727 -1e-06 -0.429712 -8.456046 2.555504 1e-06 0.0 3e-06 -15.923536 -20.094482 -5.473585 30.41921 -7.190825 1.735926 2e-06 -8.162929 -0.0 -1.861903 -22.861469 -6.167939 1e-06 -3e-06 -2e-06 90.530586 -20.316557 28.891226 152.986481 -1.471052 -0.34377 -51.887321 45.813881 24.586428 -27.997818 1.962904 1.858525 -1.000001 0.0 -0.0 -88.251183 -22.376034 35.315006 157.875626 -1.313995 0.239197 -56.528133 49.423325 46.626446 -39.772812 0.996022 0.744022 -1.000001 0.0 1e-06 
0.0 0.0 0.0 0.0 -0.0 0.0 -7.233329 28.219229 -55.137421 109.629356 -44.009052 72.205338 22.703596 0.307998 3.251831 3.237993 -1.149747 0.65287 44.285938 -2.103646 -4.41667 17.845192 3.515028 4.362259 -2.736877 0.921958 -3.154053 -27.633669 -3.300054 -3.85042 5e-06 0.0 0.0 -0.218627 -0.006932 -0.002936 -0.366345 -0.157252 0.069203 -0.243731 0.104192 -0.073045 -17.761591 -57.435062 8.445092 15.413646 27.551197 -97.119392 37.560093 2.038325 1.986138 -6.214526 13.256192 10.000921 17.636637 -26.32275 52.411213 -19.466663 -14.3956 29.410393 -2e-06 -8.774824 -2e-06 17.502434 -17.939571 5.672489 -0.609776 -1.795654 -3.889328 -4.807089 -11.046814 -2.93785 3e-06 -20.976025 2e-06 -5.019974 -25.033564 -4.031878 5e-06 -1e-06 0.0 -10.634537 -5.686973 -3.565587 10.573275 -17.922955 -3.113899 2e-06 -13.821213 2e-06 -0.501781 -31.181511 -4.027013 -11.020411 -59.475178 7.151911 -13.982718 -7.150199 -2.875042 13.772733 -8.401495 -3.218241 0.34773 -34.211571 0.771659 -0.963031 -17.733379 2.621022 0.0 -1e-06 -0.0 -17.346424 -20.095224 -4.201779 21.757566 -1.638375 3.866429 1e-06 -6.338826 1e-06 -1.697592 -22.591751 -6.194006 0.0 -5e-06 -2e-06 175.647964 -53.107639 -3.672485 -9.202046 28.051266 -100.214546 21.269312 -2.175764 1.046552 -10.680141 10.56877 -0.95646 22.182121 -20.375898 49.933315 -16.701813 -16.74353 28.47653 -1e-06 -12.690605 -3e-06 16.166555 -18.499516 2.65991 -0.105921 -1.513856 -4.27588 -5.039041 -5.612872 -2.953556 5e-06 -11.020524 -1e-06 -6.111298 -15.895334 -3.840469 1e-06 -0.0 1e-06 -10.283373 -5.680288 -4.341838 11.028294 -11.302406 -2.372632 -1.38427 -14.238581 -6.320119 -0.625442 -26.924194 -3.8276 -5.270793 -49.816528 -2.994631 -13.708527 -7.363476 -3.720938 18.141151 -14.052741 -3.242673 5e-06 -18.787271 -0.0 -0.429711 -8.456043 2.555504 1e-06 0.0 1e-06 -15.923539 -20.094484 -5.473582 30.419218 -7.190826 1.735928 1e-06 -8.16293 -1e-06 -1.861904 -22.861479 -6.167941 0.0 -4e-06 -3e-06 90.54673 -20.332344 29.165564 152.906097 -1.43542 -0.322309 -51.524212 46.006428 24.811911 -28.189014 1.97072 1.849939 -0.999999 0.0 -0.0 -88.154251 -22.316404 35.02132 157.958084 -1.334406 0.214764 -56.615669 49.162479 46.589668 -39.832733 1.000871 0.749721 -1.000002 -0.0 -1e-06 
0.0 0.0 0.0 0.0 -0.0 0.0 -7.307395 28.18548 -55.174019 109.643646 -43.95734 72.187515 22.637333 0.307669 3.242932 3.224531 -1.145978 0.638071 44.377377 -2.149103 -4.448203 18.160086 3.576466 4.361183 -2.723454 0.920795 -3.090847 -27.393049 -3.200409 -3.779029 7e-06 -0.0 -0.0 -0.22196 -0.009977 -0.004414 -0.368411 -0.158914 0.068915 -0.241135 0.100806 -0.075947 -17.853846 -57.370987 8.492055 15.433517 27.528563 -96.912148 37.541866 1.966636 1.910581 -6.311218 13.333912 10.177958 17.636627 -26.322733 52.41119 -19.46665 -14.395596 29.410381 -1e-06 -8.774821 -2e-06 17.504791 -17.9186 5.650034 -0.609776 -1.795653 -3.889327 -4.807088 -11.046809 -2.93785 3e-06 -20.976017 1e-06 -5.019971 -25.033552 -4.031878 6e-06 -1e-06 -0.0 -10.634533 -5.68697 -3.565587 10.573271 -17.922947 -3.113899 2e-06 -13.821205 2e-06 -0.50178 -31.181498 -4.027013 -11.078153 -59.461525 7.144652 -13.982712 -7.150198 -2.875042 13.772727 -8.401491 -3.21824 0.347731 -34.211555 0.771657 -0.96303 -17.733372 2.621021 -0.0 -0.0 0.0 -17.346416 -20.095215 -4.201782 21.757555 -1.638375 3.866428 1e-06 -6.338824 1e-06 -1.69759 -22.591743 -6.194005 0.0 -4e-06 -2e-06 175.688904 -53.205269 -3.642369 -9.129633 28.160215 -100.04335 21.263939 -2.155161 1.04327 -10.771946 10.567168 -0.925307 22.182112 -20.375887 49.933308 -16.701809 -16.743525 28.476522 -4e-06 -12.6906 -1e-06 16.253452 -18.535065 2.618426 -0.105921 -1.513856 -4.27588 -5.039038 -5.612869 -2.953557 6e-06 -11.02052 -3e-06 -6.111295 -15.89533 -3.840472 1e-06 0.0 -0.0 -10.283367 -5.680286 -4.341839 11.028291 -11.302402 -2.372632 -1.384267 -14.238577 -6.320122 -0.625436 -26.924183 -3.827602 -5.338431 -49.918385 -3.004952 -13.708519 -7.363473 -3.720939 18.141146 -14.052736 -3.242674 7e-06 -18.787266 -3e-06 -0.429711 -8.456044 2.555503 0.0 0.0 2e-06 -15.923528 -20.094479 -5.473586 30.419205 -7.190825 1.735927 2e-06 -8.162926 -0.0 -1.861902 -22.861467 -6.167941 1e-06 -3e-06 -1e-06 90.535988 -20.374613 29.419937 152.853958 -1.402588 -0.302559 -51.193722 46.139153 24.947214 -28.295395 1.983922 1.836164 -1.0 -0.0 0.0 -88.116425 -22.244751 34.862118 158.030014 -1.327087 0.204877 -56.41589 49.025799 46.774017 -39.748211 1.00362 0.75084 -1.000001 -0.0 -0.0 
